/* XPM */
static char * emesene_xpm[] = {
"32 32 446 2",
"  	c None",
". 	c #4372AF",
"+ 	c #5986BA",
"@ 	c #6890C0",
"# 	c #5580B7",
"$ 	c #406FAC",
"% 	c #6790C1",
"& 	c #B2CDEA",
"* 	c #B4D1EF",
"= 	c #A9CAEB",
"- 	c #A7C6E8",
"; 	c #9CBDDE",
"> 	c #5481B7",
", 	c #638CC0",
"' 	c #BBD6F2",
") 	c #B2D6F9",
"! 	c #AACEF4",
"~ 	c #A0C6ED",
"{ 	c #95BDE6",
"] 	c #8BB3DF",
"^ 	c #95B7DD",
"/ 	c #4B7BB4",
"( 	c #47840D",
"_ 	c #6FA23E",
": 	c #8EBD61",
"< 	c #92C461",
"[ 	c #8BBC5C",
"} 	c #6A9F38",
"| 	c #47820C",
"1 	c #4173AD",
"2 	c #ABC8E7",
"3 	c #B2D4F9",
"4 	c #B7D9FD",
"5 	c #ACD0F6",
"6 	c #A1C7EE",
"7 	c #96BDE7",
"8 	c #8BB4DF",
"9 	c #81ABD9",
"0 	c #7CA2CF",
"a 	c #3D6DA8",
"b 	c #5B9622",
"c 	c #9BD264",
"d 	c #8CD346",
"e 	c #7ACB2B",
"f 	c #76C727",
"g 	c #75C428",
"h 	c #82C53F",
"i 	c #8AC356",
"j 	c #548E1C",
"k 	c #4D7BB3",
"l 	c #B5D0EF",
"m 	c #ABD0F5",
"n 	c #AED2F7",
"o 	c #A8CDF3",
"p 	c #9FC5ED",
"q 	c #94BCE6",
"r 	c #89B3DE",
"s 	c #7EA9D7",
"t 	c #82AAD5",
"u 	c #4070AD",
"v 	c #54911C",
"w 	c #9AD75C",
"x 	c #7FD22E",
"y 	c #7ED12C",
"z 	c #7CCE2B",
"A 	c #79CB29",
"B 	c #74C426",
"C 	c #6FBE23",
"D 	c #6BB721",
"E 	c #81BC48",
"F 	c #4E8916",
"G 	c #5581B6",
"H 	c #ADCDEC",
"I 	c #A3C8F0",
"J 	c #A5CAF1",
"K 	c #99C0E9",
"L 	c #90B9E3",
"M 	c #86B0DC",
"N 	c #7CA7D5",
"O 	c #7DA6D3",
"P 	c #3A6BA9",
"Q 	c #90C75A",
"R 	c #84D733",
"S 	c #82D82F",
"T 	c #81D62E",
"U 	c #7FD22C",
"V 	c #7ACC29",
"W 	c #75C526",
"X 	c #6BB61F",
"Y 	c #68B221",
"Z 	c #75AD41",
"` 	c #4674AD",
" .	c #A8C7E9",
"..	c #9AC1EA",
"+.	c #9BC2EA",
"@.	c #93BBE5",
"#.	c #82ACD9",
"$.	c #78A4D3",
"%.	c #74A1CF",
"&.	c #3E6EAC",
"*.	c #518D1B",
"=.	c #9ADD59",
"-.	c #84DA30",
";.	c #87DD32",
">.	c #80D52D",
",.	c #7BCC29",
"'.	c #74C526",
").	c #6FBD22",
"!.	c #69B620",
"~.	c #65AF1C",
"{.	c #79B53C",
"].	c #4C8512",
"^.	c #87ABD6",
"/.	c #94BBE3",
"(.	c #92BAE4",
"_.	c #90B8E3",
":.	c #84AEDB",
"<.	c #7CA8D6",
"[.	c #74A0D0",
"}.	c #5C8ABF",
"|.	c #629B2D",
"1.	c #91DB49",
"2.	c #85DC31",
"3.	c #89E033",
"4.	c #84DB31",
"5.	c #7ED32C",
"6.	c #78CA29",
"7.	c #73C225",
"8.	c #6DBB22",
"9.	c #69B41F",
"0.	c #64AD1C",
"a.	c #6FB02F",
"b.	c #538B1C",
"c.	c #4877B0",
"d.	c #8EB4DC",
"e.	c #8BB4DE",
"f.	c #82ADDA",
"g.	c #7DA8D6",
"h.	c #75A2D1",
"i.	c #6C9ACB",
"j.	c #4071AD",
"k.	c #5F992B",
"l.	c #8ED944",
"m.	c #83D92F",
"n.	c #7BCE2A",
"o.	c #71C025",
"p.	c #6CB921",
"q.	c #67B11D",
"r.	c #61AB1B",
"s.	c #6BAD2B",
"t.	c #50861B",
"u.	c #426FA9",
"v.	c #6790C3",
"w.	c #7CA6D4",
"x.	c #7CA6D5",
"y.	c #6F9CCC",
"z.	c #5785BB",
"A.	c #4473AD",
"B.	c #3F6FAA",
"C.	c #528D19",
"D.	c #90D74B",
"E.	c #80D42D",
"F.	c #7FD22D",
"G.	c #7CCF2A",
"H.	c #77C928",
"I.	c #72C225",
"J.	c #6EBB22",
"K.	c #69B51F",
"L.	c #64AF1D",
"M.	c #61A819",
"N.	c #6AAC2C",
"O.	c #47840F",
"P.	c #4876B0",
"Q.	c #82A7D0",
"R.	c #5D85B2",
"S.	c #4974A8",
"T.	c #4470A7",
"U.	c #4874A8",
"V.	c #5982B1",
"W.	c #78A1CD",
"X.	c #6791C4",
"Y.	c #416EAD",
"Z.	c #83C344",
"`.	c #7CCC2C",
" +	c #79CB28",
".+	c #6FBD23",
"++	c #6BB720",
"@+	c #66B11E",
"#+	c #62AA1B",
"$+	c #5EA519",
"%+	c #63A227",
"&+	c #4472AD",
"*+	c #81A6D2",
"=+	c #82ADDB",
"-+	c #82AEDD",
";+	c #83AFDB",
">+	c #81ABD6",
",+	c #7FAAD8",
"'+	c #7DA8D8",
")+	c #77A3D4",
"!+	c #79A2D2",
"~+	c #6C95C6",
"{+	c #3F71A4",
"]+	c #519016",
"^+	c #84CB3D",
"/+	c #73C325",
"(+	c #71C023",
"_+	c #6FBB22",
":+	c #6BB620",
"<+	c #67B21E",
"[+	c #63AD1B",
"}+	c #60A719",
"|+	c #65A724",
"1+	c #47850D",
"2+	c #4E7AB0",
"3+	c #618CBE",
"4+	c #8FB3DD",
"5+	c #7FABDA",
"6+	c #83AEDD",
"7+	c #87B2E0",
"8+	c #84AFDD",
"9+	c #7EAADA",
"0+	c #7AA6D6",
"a+	c #74A1D2",
"b+	c #78A1D0",
"c+	c #6992C4",
"d+	c #3E757E",
"e+	c #559119",
"f+	c #7BC036",
"g+	c #70BB28",
"h+	c #6AB520",
"i+	c #66B21E",
"j+	c #63A91E",
"k+	c #4C8A0F",
"l+	c #5982B6",
"m+	c #7A9EC8",
"n+	c #90B2D8",
"o+	c #7FA9D8",
"p+	c #80ACDB",
"q+	c #85B0DF",
"r+	c #86B2DF",
"s+	c #81ACDC",
"t+	c #7CA8D8",
"u+	c #78A4D4",
"v+	c #729FD1",
"w+	c #79A1CF",
"x+	c #5A87A2",
"y+	c #488312",
"z+	c #4D8B12",
"A+	c #5A9A1D",
"B+	c #69AB27",
"C+	c #67AB26",
"D+	c #61A522",
"E+	c #539416",
"F+	c #4A8A0E",
"G+	c #49860D",
"H+	c #5580B4",
"I+	c #ADC7E4",
"J+	c #517EB7",
"K+	c #9CBCDF",
"L+	c #5784BC",
"M+	c #94B5D9",
"N+	c #6A98BE",
"O+	c #528F25",
"P+	c #73BF26",
"Q+	c #6DB326",
"R+	c #5E9D1F",
"S+	c #508D15",
"T+	c #4D8911",
"U+	c #508C15",
"V+	c #5C9D1C",
"W+	c #6BB324",
"X+	c #72C025",
"Y+	c #509411",
"Z+	c #92AFD2",
"`+	c #83ACD9",
" @	c #5A86BA",
".@	c #9CBDE1",
"+@	c #86B1DF",
"@@	c #648EBE",
"#@	c #6A91C0",
"$@	c #78A3C0",
"%@	c #498715",
"&@	c #74C126",
"*@	c #7BCD2A",
"=@	c #7ED22D",
"-@	c #7CCB2D",
";@	c #76C32C",
">@	c #74BF29",
",@	c #73C129",
"'@	c #77C629",
")@	c #77C927",
"!@	c #71BD26",
"~@	c #559615",
"{@	c #5F87B9",
"]@	c #B4CCE5",
"^@	c #A4C4E2",
"/@	c #84B0DF",
"(@	c #80AAD7",
"_@	c #46738C",
":@	c #508921",
"<@	c #64A825",
"[@	c #76C528",
"}@	c #79CC29",
"|@	c #80D52E",
"1@	c #7DD12B",
"2@	c #73C224",
"3@	c #6FBC23",
"4@	c #71BA2A",
"5@	c #559417",
"6@	c #4770A6",
"7@	c #396194",
"8@	c #6B93C3",
"9@	c #A6C4E4",
"0@	c #93BAE2",
"a@	c #87B2DF",
"b@	c #83ADB8",
"c@	c #5A932F",
"d@	c #529116",
"e@	c #78BF33",
"f@	c #72C324",
"g@	c #78C828",
"h@	c #7CCF2B",
"i@	c #7DD02B",
"j@	c #7DD12C",
"k@	c #79CA28",
"l@	c #72C124",
"m@	c #6EBC22",
"n@	c #6AB720",
"o@	c #71B62E",
"p@	c #518E17",
"q@	c #4C76AA",
"r@	c #8CADD2",
"s@	c #A8C3E2",
"t@	c #ABC6E4",
"u@	c #ACC8E5",
"v@	c #94B6B9",
"w@	c #619B36",
"x@	c #79BC36",
"y@	c #67A22E",
"z@	c #70BB27",
"A@	c #71BF24",
"B@	c #75C627",
"C@	c #77C727",
"D@	c #6FBE22",
"E@	c #6DBA21",
"F@	c #6AB620",
"G@	c #74B336",
"H@	c #48850F",
"I@	c #2C5482",
"J@	c #335E8E",
"K@	c #376095",
"L@	c #355F8A",
"M@	c #538B26",
"N@	c #95DC4F",
"O@	c #599E16",
"P@	c #79B541",
"Q@	c #6EBD23",
"R@	c #73C124",
"S@	c #76C627",
"T@	c #71C024",
"U@	c #5D9823",
"V@	c #6EBA24",
"W@	c #68B41E",
"X@	c #65AF1D",
"Y@	c #66AD20",
"Z@	c #71AB3B",
"`@	c #428108",
" #	c #8ECC50",
".#	c #81D530",
"+#	c #4F9210",
"@#	c #82BD4A",
"##	c #69B51E",
"$#	c #6CBA21",
"%#	c #6FBF23",
"&#	c #4E8A12",
"*#	c #79B63E",
"=#	c #67B21D",
"-#	c #65AD1C",
";#	c #60AA1A",
">#	c #76B23C",
",#	c #548B1C",
"'#	c #47860B",
")#	c #9BDD5A",
"!#	c #509010",
"~#	c #87BE54",
"{#	c #66B11C",
"]#	c #6AB61F",
"^#	c #6FBC22",
"/#	c #6EBB21",
"(#	c #529411",
"_#	c #6DA438",
":#	c #68AF22",
"<#	c #63AB1A",
"[#	c #60A819",
"}#	c #71AE36",
"|#	c #5E932A",
"1#	c #6AA332",
"2#	c #8BCD4A",
"3#	c #5D9C20",
"4#	c #84B454",
"5#	c #68B021",
"6#	c #6AB71F",
"7#	c #64AE1B",
"8#	c #599F16",
"9#	c #47830E",
"0#	c #86B955",
"a#	c #6DAF2B",
"b#	c #74B138",
"c#	c #7DB04C",
"d#	c #447F09",
"e#	c #45820C",
"f#	c #3B7506",
"g#	c #50871A",
"h#	c #8EC05C",
"i#	c #6CB227",
"j#	c #66B01C",
"k#	c #66B11D",
"l#	c #5EA618",
"m#	c #579B15",
"n#	c #629B2C",
"o#	c #588D24",
"p#	c #5A9026",
"q#	c #68993A",
"r#	c #427E09",
"s#	c #4B8019",
"t#	c #90BA6B",
"u#	c #9ECA73",
"v#	c #8CC256",
"w#	c #7EBA42",
"x#	c #78B839",
"y#	c #77B738",
"z#	c #84BD4C",
"A#	c #87B858",
"B#	c #7EAD53",
"C#	c #5D912E",
"D#	c #366905",
"E#	c #41750F",
"F#	c #649238",
"G#	c #78A251",
"H#	c #81A95B",
"I#	c #84AB5E",
"J#	c #78A24F",
"K#	c #6D9940",
"L#	c #497D18",
"M#	c #315E05",
"                                                                ",
"                                                                ",
"                                                                ",
"              . + @ # $                                         ",
"            % & * = - ; >                                       ",
"          , ' ) ! ~ { ] ^ /         ( _ : < [ } |               ",
"        1 2 3 4 5 6 7 8 9 0 a     b c d e f g h i j             ",
"        k l m n o p q r s t u   v w x y z A B C D E F           ",
"        G H I J 6 K L M N O P   Q R S T U V W C X Y Z           ",
"        `  ...+.K @.8 #.$.%.&.*.=.-.;.-.>.,.'.).!.~.{.].        ",
"          ^./.(._.8 :.<.[.}.  |.1.2.3.4.5.6.7.8.9.0.a.b.        ",
"          c.d.e.M f.g.h.i.j.  k.l.m.-.>.n.f o.p.q.r.s.t.        ",
"            u.v.w.x.y.z.A.B.  C.D.E.F.G.H.I.J.K.L.M.N.O.        ",
"          P.Q.R.S.T.U.V.W.X.Y.  Z.`. +f 7..+++@+#+$+%+          ",
"        &+*+=+-+;+>+,+'+)+!+~+{+]+^+/+(+_+:+<+[+}+|+1+          ",
"      2+3+4+5+6+7+7+8+9+0+a+b+c+d+e+f+g+h+i+[+j+|+k+            ",
"    l+m+n+o+p+q+7+7+r+s+t+u+v+w+x+y+z+A+B+C+D+E+F+G+            ",
"  H+I+J+K+9+-+r+7+7+7+8+L+M+a+N+O+P+Q+R+S+T+U+V+W+X+Y+          ",
"  Z+`+ @.@5+6+7+7+7+7++@@@#@$@%@&@*@=@-@;@>@,@'@)@/+!@~@        ",
"  {@]@> ^@p+/@7+7+7+7+7+(@_@:@<@[@}@=@|@T |@1@V f 2@3@4@5@      ",
"    6@7@8@9@0@a@7+7+7+a@b@c@d@e@f@g@h@i@y j@G.k@W l@m@n@o@p@    ",
"          q@r@s@t@u@t@v@w@x@y@z@A@B@6.A V V A C@/+D@E@F@@+G@H@  ",
"              I@J@K@L@M@N@O@P@++Q@R@W S@f f B@B T@U@V@W@X@Y@Z@`@",
"                       #.#+#@###$#%#T@l@I.I.l@T@m@&#*#=#-#;#>#,#",
"                    '#)#h@!#~#{#]#E@J.m@^#m@m@/#K.(#_#:#<#[#}#|#",
"                      1#2#3#4#5#=#K.]#++++++6#]#7#8#9#0#a#b#c#d#",
"                        e#f#g#h#i#j#k#=#=#=#=#k#l#m#n#o#p#q#r#  ",
"                              s#t#u#v#w#x#y#w#z#A#B#C#D#        ",
"                                  E#F#G#H#I#J#K#L#M#            ",
"                                                                ",
"                                                                ",
"                                                                "};
