/* XPM */
static char * emesene_xpm[] = {
"32 32 507 2",
"  	c None",
". 	c #55AA00",
"+ 	c #438A08",
"@ 	c #4C8F11",
"# 	c #57991E",
"$ 	c #4A8F11",
"% 	c #3E8D09",
"& 	c #428F0A",
"* 	c #6FA831",
"= 	c #8CBA4B",
"- 	c #A2C959",
"; 	c #B0D363",
"> 	c #AFD362",
", 	c #ACD262",
"' 	c #A8D063",
") 	c #96C558",
"! 	c #81B74B",
"~ 	c #63A42D",
"{ 	c #3C8D0B",
"] 	c #408000",
"^ 	c #6BA324",
"/ 	c #9EC54C",
"( 	c #B3D454",
"_ 	c #B1D24D",
": 	c #AFD14D",
"< 	c #ACD04E",
"[ 	c #A9CF4E",
"} 	c #A6CE4E",
"| 	c #A1CC4E",
"1 	c #9DCB4E",
"2 	c #99C94E",
"3 	c #99CA55",
"4 	c #84BC4C",
"5 	c #589C20",
"6 	c #249200",
"7 	c #409500",
"8 	c #7AB030",
"9 	c #B0D24C",
"0 	c #B3D247",
"a 	c #B4D347",
"b 	c #B4D247",
"c 	c #B1D147",
"d 	c #AED047",
"e 	c #AACE47",
"f 	c #A6CE47",
"g 	c #A1CC47",
"h 	c #9CCA47",
"i 	c #98C847",
"j 	c #92C747",
"k 	c #8EC548",
"l 	c #8CC450",
"m 	c #63A52E",
"n 	c #2E8B00",
"o 	c #72AA28",
"p 	c #AFD145",
"q 	c #B2D140",
"r 	c #B6D340",
"s 	c #B8D340",
"t 	c #B7D340",
"u 	c #B3D140",
"v 	c #B0D040",
"w 	c #AACF40",
"x 	c #A5CD41",
"y 	c #A0CB41",
"z 	c #9BC941",
"A 	c #96C741",
"B 	c #90C541",
"C 	c #8BC342",
"D 	c #85C142",
"E 	c #84C147",
"F 	c #599E24",
"G 	c #008000",
"H 	c #599A16",
"I 	c #A4CB3C",
"J 	c #ADCF3A",
"K 	c #B3D13A",
"L 	c #B8D33A",
"M 	c #BCD53A",
"N 	c #B9D43A",
"O 	c #B5D23A",
"P 	c #AFCF3A",
"Q 	c #A9CD3A",
"R 	c #A4CB3A",
"S 	c #9EC93B",
"T 	c #99C73B",
"U 	c #93C63B",
"V 	c #8EC43B",
"W 	c #88C23C",
"X 	c #83C03C",
"Y 	c #7DBD3C",
"Z 	c #77BA3E",
"` 	c #499412",
" .	c #339900",
"..	c #71A823",
"+.	c #A5CB34",
"@.	c #A9CD34",
"#.	c #AFCF34",
"$.	c #B4D034",
"%.	c #B7D234",
"&.	c #B5D134",
"*.	c #B0CF34",
"=.	c #ABCD34",
"-.	c #A6CB34",
";.	c #A1CA35",
">.	c #9BC835",
",.	c #95C635",
"'.	c #8FC435",
").	c #89C235",
"!.	c #84C036",
"~.	c #7FBD36",
"{.	c #79BB36",
"].	c #73B936",
"^.	c #569F24",
"/.	c #458D09",
"(.	c #8DBE29",
"_.	c #9FC92E",
":.	c #A4CB2E",
"<.	c #99B92C",
"[.	c #95AC39",
"}.	c #A6C42C",
"|.	c #ADCE2E",
"1.	c #AACD2E",
"2.	c #A2C62D",
"3.	c #93AC4C",
"4.	c #8FAA4B",
"5.	c #93C12E",
"6.	c #91C32F",
"7.	c #8BC12F",
"8.	c #7BAF30",
"9.	c #88A95E",
"0.	c #73A639",
"a.	c #74B930",
"b.	c #6EB730",
"c.	c #62AE29",
"d.	c #3D890A",
"e.	c #4C910D",
"f.	c #97C62F",
"g.	c #9BC72F",
"h.	c #9EC430",
"i.	c #DEE3CE",
"j.	c #FFFFFF",
"k.	c #BDC994",
"l.	c #A6CB2E",
"m.	c #A4CA2E",
"n.	c #A9C068",
"o.	c #FEFEFE",
"p.	c #A0BC64",
"q.	c #8EC22F",
"r.	c #88C02F",
"s.	c #C6D4B3",
"t.	c #FCFDFE",
"u.	c #D0E1DB",
"v.	c #5DA845",
"w.	c #51A549",
"x.	c #54A941",
"y.	c #358820",
"z.	c #4F940F",
"A.	c #92C42F",
"B.	c #96C52F",
"C.	c #A2C944",
"D.	c #E7ECDA",
"E.	c #9EC82F",
"F.	c #BFD48B",
"G.	c #B7D187",
"H.	c #87BF31",
"I.	c #4AA360",
"J.	c #53ACBA",
"K.	c #53B2C9",
"L.	c #4EB7CE",
"M.	c #49BACF",
"N.	c #49BED6",
"O.	c #4ABACF",
"P.	c #45B5C6",
"Q.	c #3AA9C2",
"R.	c #1794B1",
"S.	c #03819A",
"T.	c #458F0B",
"U.	c #89C02D",
"V.	c #94C52F",
"W.	c #CBDFA0",
"X.	c #EAF1DC",
"Y.	c #B7D572",
"Z.	c #98C62F",
"`.	c #9BC83A",
" +	c #CEE2A8",
".+	c #CBE0A7",
"++	c #4EA46B",
"@+	c #39A3A4",
"#+	c #43BBD3",
"$+	c #4BC3DB",
"%+	c #43C2DC",
"&+	c #43C5DE",
"*+	c #43C7E0",
"=+	c #44C9E2",
"-+	c #45CBE4",
";+	c #45CCE5",
">+	c #47CDE6",
",+	c #50D1E8",
"'+	c #45C4DB",
")+	c #27A0BB",
"!+	c #0384A4",
"~+	c #3A8B00",
"{+	c #6BAA1F",
"]+	c #8AC12F",
"^+	c #8DC22F",
"/+	c #8FC32F",
"(+	c #91C42F",
"_+	c #90C32F",
":+	c #7FBD37",
"<+	c #319A8A",
"[+	c #37B3CC",
"}+	c #38BAD5",
"|+	c #36BBD7",
"1+	c #37BED9",
"2+	c #38C1DC",
"3+	c #38C4DE",
"4+	c #4AA7B8",
"5+	c #71B0BC",
"6+	c #40B0C4",
"7+	c #3ACCE5",
"8+	c #3BCDE7",
"9+	c #3BCEE8",
"0+	c #3BCFE8",
"a+	c #40D0E9",
"b+	c #38BFD8",
"c+	c #0D91AE",
"d+	c #0055AA",
"e+	c #519712",
"f+	c #83BF2F",
"g+	c #86C02F",
"h+	c #89C12F",
"i+	c #7BBB37",
"j+	c #2C9B96",
"k+	c #2FB1D0",
"l+	c #29B2D0",
"m+	c #2AB6D4",
"n+	c #2AB8D6",
"o+	c #2BBCD9",
"p+	c #2CBEDB",
"q+	c #36BBD4",
"r+	c #F3F8F8",
"s+	c #CAE2E6",
"t+	c #2FCCE7",
"u+	c #2FCEE9",
"v+	c #30CFEA",
"w+	c #2FCEE8",
"x+	c #35CAE4",
"y+	c #1198B6",
"z+	c #3C8F08",
"A+	c #5FA41C",
"B+	c #80BD30",
"C+	c #81BE2F",
"D+	c #82BE2F",
"E+	c #83BE2F",
"F+	c #27978C",
"G+	c #20A9CA",
"H+	c #1DACCC",
"I+	c #1EAFCF",
"J+	c #1EB3D1",
"K+	c #1FB5D4",
"L+	c #1FB9D7",
"M+	c #20BCDA",
"N+	c #41C2DA",
"O+	c #F0F7F8",
"P+	c #25CCE8",
"Q+	c #25CEE9",
"R+	c #26D0EC",
"S+	c #26D1EC",
"T+	c #26D0EB",
"U+	c #24CBE8",
"V+	c #28C6E3",
"W+	c #088EAC",
"X+	c #468F0C",
"Y+	c #67AD23",
"Z+	c #7ABB30",
"`+	c #7BBC30",
" @	c #399B69",
".@	c #12A0C0",
"+@	c #10A4C6",
"@@	c #11A8C9",
"#@	c #12ACCD",
"$@	c #13AFD0",
"%@	c #14B2D3",
"&@	c #15B5D5",
"*@	c #15B9D8",
"=@	c #27C1DD",
"-@	c #DEEFF2",
";@	c #19CAE7",
">@	c #1ACEEA",
",@	c #1BD1ED",
"'@	c #1BD3EF",
")@	c #1BD0ED",
"!@	c #1ACDEA",
"~@	c #19C9E7",
"{@	c #18C6E4",
"]@	c #17B3D1",
"^@	c #0383A1",
"/@	c #338C00",
"(@	c #5CA51F",
"_@	c #73B930",
":@	c #70B633",
"<@	c #128D95",
"[@	c #039DC0",
"}@	c #04A0C3",
"|@	c #05A4C6",
"1@	c #06A8CA",
"2@	c #07ABCD",
"3@	c #08AFD0",
"4@	c #09B2D3",
"5@	c #09B6D6",
"6@	c #0AB9D9",
"7@	c #CEE9ED",
"8@	c #0EC7E6",
"9@	c #0FCAE9",
"0@	c #0FCDEC",
"a@	c #10CFED",
"b@	c #0FCDEB",
"c@	c #0EC6E5",
"d@	c #0DC3E2",
"e@	c #0DC0DF",
"f@	c #0590AF",
"g@	c #469512",
"h@	c #6BB62F",
"i@	c #6CB630",
"j@	c #6DB630",
"k@	c #6DB730",
"l@	c #409D5B",
"m@	c #0094B6",
"n@	c #019BC0",
"o@	c #029FC3",
"p@	c #03A3C6",
"q@	c #04A6C9",
"r@	c #05A9CC",
"s@	c #06ADCF",
"t@	c #06B1D2",
"u@	c #07B4D6",
"v@	c #08B8D9",
"w@	c #EAF5F7",
"x@	c #BDE4EA",
"y@	c #0BC5E4",
"z@	c #0CC8E7",
"A@	c #0DCAE9",
"B@	c #0DC9E8",
"C@	c #0CC7E6",
"D@	c #0BC4E4",
"E@	c #0BC1E1",
"F@	c #0ABEDE",
"G@	c #05A1BF",
"H@	c #00749B",
"I@	c #418B09",
"J@	c #59A925",
"K@	c #65B431",
"L@	c #65B430",
"M@	c #65B32F",
"N@	c #58A622",
"O@	c #198673",
"P@	c #0097BC",
"Q@	c #019ABF",
"R@	c #029EC2",
"S@	c #03A2C5",
"T@	c #04A5C8",
"U@	c #04A9CB",
"V@	c #05ACCE",
"W@	c #06AFD1",
"X@	c #07B3D4",
"Y@	c #08B6D7",
"Z@	c #D9EDF1",
"`@	c #ADDFE8",
" #	c #0BC2E2",
".#	c #0CC6E5",
"+#	c #0CC5E5",
"@#	c #0BC4E3",
"##	c #0BC2E1",
"$#	c #0ABFDF",
"%#	c #09BCDC",
"&#	c #07B1D1",
"*#	c #027E9E",
"=#	c #00FF00",
"-#	c #4A9A17",
";#	c #63B330",
">#	c #54A321",
",#	c #4A9717",
"'#	c #428E0D",
")#	c #378307",
"!#	c #007FA0",
"~#	c #0096BB",
"{#	c #019ABE",
"]#	c #029DC1",
"^#	c #02A0C4",
"/#	c #03A4C7",
"(#	c #04A7CA",
"_#	c #05AACD",
":#	c #06AED0",
"<#	c #06B1D3",
"[#	c #07B4D5",
"}#	c #C1E5EB",
"|#	c #96DAE6",
"1#	c #0ABEDF",
"2#	c #0AC0E0",
"3#	c #0AC1E1",
"4#	c #09B9DA",
"5#	c #0283A0",
"6#	c #3B8607",
"7#	c #469312",
"8#	c #428F0D",
"9#	c #3A8400",
"0#	c #007F9E",
"a#	c #0095BA",
"b#	c #0098BD",
"c#	c #03A2C6",
"d#	c #07B1D3",
"e#	c #A4DAE5",
"f#	c #7AD3E3",
"g#	c #09BBDB",
"h#	c #09BCDD",
"i#	c #09BDDD",
"j#	c #0ABDDE",
"k#	c #09BADB",
"l#	c #02819E",
"m#	c #007C9B",
"n#	c #86D1E0",
"o#	c #5CCCE1",
"p#	c #08B7D8",
"q#	c #08B9DA",
"r#	c #07B5D6",
"s#	c #05AACB",
"t#	c #02809C",
"u#	c #007895",
"v#	c #008EB1",
"w#	c #0098BC",
"x#	c #019BBF",
"y#	c #02A1C4",
"z#	c #05ABCE",
"A#	c #46C1D9",
"B#	c #CCEBF1",
"C#	c #23BAD8",
"D#	c #07B3D5",
"E#	c #07B2D4",
"F#	c #0398B7",
"G#	c #007692",
"H#	c #0000FF",
"I#	c #0081A2",
"J#	c #04A8CB",
"K#	c #0499B7",
"L#	c #0F8CA6",
"M#	c #06A3C3",
"N#	c #06B0D2",
"O#	c #0388A9",
"P#	c #00799B",
"Q#	c #008FB2",
"R#	c #05A0C2",
"S#	c #BBD6DC",
"T#	c #84BBC7",
"U#	c #05ABCD",
"V#	c #05AACC",
"W#	c #039CBD",
"X#	c #007C9C",
"Y#	c #007F9F",
"Z#	c #0093B7",
"`#	c #019CC0",
" $	c #029FC2",
".$	c #1EA7C6",
"+$	c #E4F0F3",
"@$	c #039EC0",
"#$	c #02809D",
"$$	c #00809F",
"%$	c #0092B6",
"&$	c #0097BB",
"*$	c #0199BD",
"=$	c #039EC1",
"-$	c #B7DFE8",
";$	c #FEFEFF",
">$	c #81CCDC",
",$	c #03A1C5",
"'$	c #007D9C",
")$	c #008080",
"!$	c #0088AB",
"~$	c #0094BA",
"{$	c #089EC2",
"]$	c #019DC1",
"^$	c #0080A0",
"/$	c #007695",
"($	c #007D9D",
"_$	c #0087A9",
":$	c #0199BE",
"<$	c #008BAE",
"[$	c #007897",
"}$	c #006F90",
"|$	c #007997",
"1$	c #007D9E",
"2$	c #0081A1",
"3$	c #0081A3",
"4$	c #0082A5",
"5$	c #0082A2",
"6$	c #0081A0",
"7$	c #0084A5",
"8$	c #008EB3",
"9$	c #007B97",
"0$	c #008CAF",
"a$	c #0090B4",
"b$	c #007797",
"c$	c #007B9B",
"d$	c #0082A4",
"e$	c #00718E",
"f$	c #006D92",
"g$	c #007894",
"h$	c #007599",
"              . + @ # # $ % .                                   ",
"          & * = - ; > , ' ) ! ~ {                               ",
"      ] ^ / ( _ : < [ } | 1 2 3 4 5 6                           ",
"    7 8 9 0 a b c d e f g h i j k l m n                         ",
"  . o p q r s t u v w x y z A B C D E F G                       ",
"  H I J K L M N O P Q R S T U V W X Y Z `                       ",
" ...+.@.#.$.%.&.*.=.-.;.>.,.'.).!.~.{.].^.]                     ",
"/.(._.:.<.[.}.|.1.2.3.4.5.6.7.8.9.0.a.b.c.d.                    ",
"e.f.g.h.i.j.k.l.m.n.o.o.p.q.r.s.t.u.v.w.x.y.                    ",
"z.A.B.C.j.j.D._.E.F.j.j.G.H.I.J.K.L.M.N.O.P.Q.R.S.              ",
"T.U.6.V.W.X.Y.Z.f.`. +.+++@+#+$+%+&+*+=+-+;+>+,+'+)+!+          ",
"~+{+]+^+/+6.(+6._+q.:+<+[+}+|+1+2+3+4+5+6+7+8+9+0+a+b+c+d+      ",
"  e+f+g+r.h+]+h+h+i+j+k+l+m+n+o+p+q+r+j.s+t+u+v+v+v+w+x+y+d+    ",
"  z+A+B+C+D+E+D+B+F+G+H+I+J+K+L+M+N+j.j.O+P+Q+R+S+T+Q+U+V+W+    ",
"    X+Y+Z+`+`+`+ @.@+@@@#@$@%@&@*@=@j.j.-@;@>@,@'@)@!@~@{@]@^@  ",
"    /@(@_@a.a.:@<@[@}@|@1@2@3@4@5@6@t.j.7@8@9@0@a@b@9@c@d@e@f@  ",
"    g@h@i@j@k@l@m@n@o@p@q@r@s@t@u@v@w@j.x@y@z@A@A@B@C@D@E@F@G@H@",
"  I@J@K@L@M@N@O@P@Q@R@S@T@U@V@W@X@Y@Z@j.`@ #D@.#.#+#@###$#%#&#*#",
"=#-#;#>#,#'#)#!#~#{#]#^#/#(#_#:#<#[#}#j.|#1#2#E@##3#2#F@%#4#Y@5#",
"6#7#8#9#      0#a#b#n@o@c#T@U@V@:#d#e#j.f#g#h#i#j#i#%#k#v@Y@X@l#",
"              m#a#~#{#]#^#p@q@r@V@:#n#j.o#p#v@q#q#v@v@Y@r#X@s#t#",
"              u#v#a#w#x#R@y#/#q@U@z#A#B#C#X@[#u@u@u@D#E#<#W@F#G#",
"              H#I#a#a#b#x#R@y#p@q@J#K#L#M#:#W@N#N#N#W@:#s@z#O#  ",
"                P#Q#a#a#b#x#R@^#c#R#S#j.T#_#z#V@V@z#U#V#r@W#X#  ",
"                  Y#Z#a#a#w#Q@`# $.$j.j.+$q@(#(#(#(#(#q@@$#$    ",
"                  H#$$%$a#a#&$*$x#=$-$;$>$S@c#p@p@p@c#,$'$)$    ",
"                    H#'$!$~$a#a#P@*$Q@{$]$]#R@R@ $R@R@]#^$      ",
"                        /$($_$%$a#a#~#P@b#:${#{#{#{#{#:$<$[$    ",
"                            }$|$1$2$3$4$5$^$6$7$8$~$a#a#a#2$    ",
"                                              )$9$m#2$0$~$a$m#  ",
"                                                    H#b$c$d$2$e$",
"                                                          f$g$h$"};
